<svg id="Layer_1" data-name="Layer 1" xmlns="http://www.w3.org/2000/svg" viewBox="0 0 512 512"><title>file-document-outline</title><path d="M447,4.13V507.87H65V4.13ZM429.77,20.81H82.23V491.19H429.77ZM134.29,87.87V71.18H377.35V87.87Zm0,67.05V138.24H377.35v16.68Zm0,67.39V205.63H377.35V222.3Zm0,67.4V273H377.35V289.7Zm0,67.05V340.07H377.35v16.68Zm0,67.05V407.12H377.35V423.8Z" fill="#737277"/><path d="M451.13,512H60.87V0H451.13Zm-382-8.26H442.87V8.26H69.13Zm364.77-8.42H78.1V16.68H433.9ZM86.36,487.06H425.64V24.94H86.36Zm295.12-59.14H130.16V403H381.48Zm-243.07-8.26H373.22v-8.42H138.42Zm243.07-58.79H130.16V335.94H381.48Zm-243.07-8.26H373.22V344.2H138.42Zm243.07-58.79H130.16V268.89H381.48Zm-243.07-8.26H373.22v-8.42H138.42Zm243.07-59.14H130.16V201.5H381.48Zm-243.07-8.26H373.22v-8.42H138.42ZM381.48,159H130.16V134.11H381.48Zm-243.07-8.26H373.22v-8.42H138.42ZM381.48,92H130.16V67.05H381.48ZM138.42,83.74H373.22V75.31H138.42Z" fill="#737277"/></svg>